:SAMPLES-PER-SECOND 30
:FULLY-SPECIFIED
:DEGREES
503
root  2.65189 39.7378 -1.39592 -0.806222 -5.20613 4.75878
RightUpLeg  -8.22611 -9.46952 -12.0754
RightLeg  8.47293 -5.7953 -3.81663
RightFoot  4.34356 -0.896124 5.63407
RightToes  1.74624e-010 -3.18055e-015 -2.98177e-016
Spine  4.49479 1.4121 14.7959
Spine1  -17.4624 2.08306 -25.4013
HEad  39.8696 9.36156 9.04255
LeftShoulder1  -3.88251e-019 9.70628e-020 -3.87848e-018
LeftArm  -39.5685 19.7825 8.12555
LeftForeArm  -170.688 -66.2965 155.487
LeftHand  -5.79959 -10.655 41.4129
RightShoulder  -0.960184 -8.93325 -12.6703
RightArm  -48.5068 30.8418 9.66153
RightForeArm  -114.237 67.8819 -107.379
RightHand  -3.62218 12.6718 -22.961
LeftUpLeg  -1.80972 -6.61391 -12.9468
LeftLeg  5.79461 22.294 2.85203
LeftFoot  -5.36063 -0.346078 4.90376
LeftToes  7.37594e-011 2.64622e-011 -6.25182e-011
504
root  2.56499 39.7189 -1.3455 -1.02133 -7.52277 4.92795
RightUpLeg  -8.83968 -9.08921 -11.8462
RightLeg  8.53768 -3.8786 -3.67194
RightFoot  4.19571 -0.985098 6.26467
RightToes  1.74624e-010 -3.18055e-015 -2.98177e-016
Spine  4.61327 0.989224 13.4975
Spine1  -17.8631 1.54172 -23.1884
HEad  38.763 10.8172 7.29791
LeftShoulder1  -3.88251e-019 9.70628e-020 -3.87848e-018
LeftArm  -39.1215 15.147 7.98781
LeftForeArm  -166.92 -67.833 153.272
LeftHand  -5.56291 -11.1428 38.7581
RightShoulder  -0.960111 -8.82853 -12.6657
RightArm  -46.9177 30.3046 9.81016
RightForeArm  -105.112 68.3881 -99.3222
RightHand  -3.92168 12.6915 -24.7667
LeftUpLeg  -1.6267 -6.39398 -12.9482
LeftLeg  5.96148 24.318 3.01208
LeftFoot  -5.46568 -0.315511 4.51064
LeftToes  7.37594e-011 2.64622e-011 -6.25182e-011
505
root  2.45904 39.7146 -1.29232 -1.09625 -10.0318 5.03565
RightUpLeg  -9.58383 -8.50751 -11.4498
RightLeg  8.51328 -1.92052 -3.45785
RightFoot  4.01113 -1.01615 6.54072
RightToes  1.74624e-010 -3.18055e-015 -2.98177e-016
Spine  4.77951 0.515689 12.1784
Spine1  -18.4856 0.933516 -20.8186
HEad  37.9079 12.4014 5.30956
LeftShoulder1  -3.88251e-019 9.70628e-020 -3.87848e-018
LeftArm  -38.4102 10.5923 8.05166
LeftForeArm  -161.118 -69.6837 150.021
LeftHand  -5.33655 -11.9731 35.5977
RightShoulder  -0.960131 -8.57699 -12.2553
RightArm  -45.7108 29.8558 9.43131
RightForeArm  -97.2959 68.5112 -92.1755
RightHand  -4.09907 12.5597 -26.0252
LeftUpLeg  -1.49535 -6.18859 -12.8615
LeftLeg  5.93376 26.5084 3.10904
LeftFoot  -5.46733 -0.285712 4.06516
LeftToes  7.37594e-011 2.64622e-011 -6.25182e-011
506
root  2.3345 39.7252 -1.22852 -1.09739 -12.582 5.05108
RightUpLeg  -10.3002 -7.74432 -10.8929
RightLeg  8.37414 -0.139892 -3.22282
RightFoot  3.94549 -0.999517 6.45832
RightToes  1.74624e-010 -3.18055e-015 -2.98177e-016
Spine  4.95496 -0.0324491 10.7613
Spine1  -19.1172 0.274792 -18.0831
HEad  36.8567 13.9734 2.81325
LeftShoulder1  -3.88251e-019 9.70628e-020 -3.87848e-018
LeftArm  -37.2449 6.43972 8.13804
LeftForeArm  -154.048 -71.8906 145.23
LeftHand  -5.01 -12.8029 32.0751
RightShoulder  -0.958646 -8.34621 -11.845
RightArm  -45.1694 29.2405 8.81996
RightForeArm  -92.2477 68.4339 -87.2601
RightHand  -4.02011 12.4172 -25.7356
LeftUpLeg  -1.32435 -5.99311 -12.6833
LeftLeg  5.73773 28.7409 3.15574
LeftFoot  -5.39323 -0.258304 3.62176
LeftToes  7.37594e-011 2.64622e-011 -6.25182e-011
507
root  2.19369 39.7427 -1.15481 -1.08443 -15.0167 4.97025
RightUpLeg  -10.8435 -7.01253 -10.2491
RightLeg  8.12645 1.46765 -2.92752
RightFoot  3.99386 -0.969741 6.24277
RightToes  1.74624e-010 -3.18055e-015 -2.98177e-016
Spine  4.94847 -0.636768 9.31077
Spine1  -19.3889 -0.380625 -15.0616
HEad  35.2501 15.6874 -0.100991
LeftShoulder1  -3.88251e-019 9.70628e-020 -3.87848e-018
LeftArm  -35.8806 2.48171 7.96393
LeftForeArm  -145.943 -74.608 137.365
LeftHand  -4.49845 -13.1543 28.4284
RightShoulder  -0.957949 -8.28313 -11.7687
RightArm  -45.0961 28.0721 8.28397
RightForeArm  -89.7532 68.3443 -84.8565
RightHand  -3.84888 12.4355 -24.659
LeftUpLeg  -1.11954 -5.75774 -12.4043
LeftLeg  5.56639 30.8386 3.21943
LeftFoot  -5.32031 -0.231192 3.19139
LeftToes  7.37594e-011 2.64622e-011 -6.25182e-011
508
root  2.03008 39.7602 -1.08519 -1.03202 -17.3432 4.80471
RightUpLeg  -11.2979 -6.34956 -9.52331
RightLeg  7.87957 3.00317 -2.59874
RightFoot  4.00699 -0.951471 6.11746
RightToes  1.74624e-010 -3.18055e-015 -2.98177e-016
Spine  4.74172 -1.25488 7.83551
Spine1  -19.3117 -1.01386 -11.9009
HEad  33.2994 17.5875 -3.14847
LeftShoulder1  -3.88251e-019 9.70628e-020 -3.87848e-018
LeftArm  -34.8205 -1.61328 7.35869
LeftForeArm  -133.676 -77.5626 123.028
LeftHand  -3.90742 -12.8838 25.225
RightShoulder  -0.957618 -8.24919 -11.7472
RightArm  -45.1296 26.467 7.83087
RightForeArm  -89.1108 68.3203 -84.6257
RightHand  -3.77229 12.4944 -24.1093
LeftUpLeg  -0.994475 -5.39808 -11.9737
LeftLeg  5.60641 32.7028 3.34449
LeftFoot  -5.29785 -0.199431 2.71703
LeftToes  7.37594e-011 2.64622e-011 -6.25182e-011
509
root  1.83405 39.7786 -1.0264 -0.94134 -19.668 4.60612
RightUpLeg  -11.7447 -5.61699 -8.71706
RightLeg  7.67024 4.50897 -2.30366
RightFoot  3.94797 -0.936801 6.04329
RightToes  1.74624e-010 -3.18055e-015 -2.98177e-016
Spine  4.6229 -1.88291 6.15369
Spine1  -19.2772 -1.65618 -8.54726
HEad  31.4439 19.435 -6.06679
LeftShoulder1  -3.88251e-019 9.70628e-020 -3.87848e-018
LeftArm  -34.1433 -5.73308 6.35907
LeftForeArm  -112.669 -79.4993 99.1436
LeftHand  -3.50357 -12.4315 23.2966
RightShoulder  -0.953357 -8.01759 -11.2968
RightArm  -45.2037 24.8673 7.26051
RightForeArm  -90.231 68.3684 -86.2065
RightHand  -3.74447 12.4352 -24.0138
LeftUpLeg  -0.914992 -4.93062 -11.4245
LeftLeg  5.77255 34.4262 3.47984
LeftFoot  -5.27669 -0.162583 2.17181
LeftToes  7.37594e-011 2.64622e-011 -6.25182e-011
510
root  1.60608 39.8011 -0.968748 -0.850168 -22.0437 4.434
RightUpLeg  -12.1252 -4.8353 -7.88881
RightLeg  7.39829 6.04782 -2.00301
RightFoot  3.93382 -0.888645 5.73083
RightToes  1.74624e-010 -3.18055e-015 -2.98177e-016
Spine  4.76004 -2.54294 4.1431
Spine1  -19.4638 -2.33128 -4.87764
HEad  29.6595 21.0027 -8.70786
LeftShoulder1  -3.88251e-019 9.70628e-020 -3.87848e-018
LeftArm  -33.5101 -9.44585 5.17408
LeftForeArm  -88.1612 -79.2151 72.0102
LeftHand  -3.38228 -12.3681 22.5957
RightShoulder  -0.941815 -7.60255 -10.5158
RightArm  -45.3711 23.3124 6.53897
RightForeArm  -93.3223 68.4492 -89.3855
RightHand  -3.68078 12.3429 -23.7379
LeftUpLeg  -0.747127 -4.45987 -10.8657
LeftLeg  5.84586 36.1809 3.53798
LeftFoot  -5.18846 -0.125989 1.62144
LeftToes  7.37594e-011 2.64622e-011 -6.25182e-011
511
root  1.35287 39.8258 -0.898896 -0.699807 -24.4646 4.26692
RightUpLeg  -12.4355 -4.13917 -7.05453
RightLeg  7.02038 7.67846 -1.60665
RightFoot  4.01304 -0.790895 5.05922
RightToes  1.74624e-010 -3.18055e-015 -2.98177e-016
Spine  4.87349 -3.22329 2.04113
Spine1  -19.6021 -3.0211 -1.11017
HEad  27.735 22.2105 -10.8841
LeftShoulder1  -3.88251e-019 9.70628e-020 -3.87848e-018
LeftArm  -32.8458 -12.5775 3.98099
LeftForeArm  -71.6774 -77.2823 52.4789
LeftHand  -3.29619 -12.4155 21.9802
RightShoulder  -0.926591 -7.19174 -9.88375
RightArm  -45.4607 21.3656 5.79088
RightForeArm  -98.2332 68.4704 -94.0866
RightHand  -3.63764 12.3068 -23.5157
LeftUpLeg  -0.531889 -4.007 -10.3057
LeftLeg  5.82756 38.0078 3.53064
LeftFoot  -5.06329 -0.090324 1.09239
LeftToes  7.37594e-011 2.64622e-011 -6.25182e-011
512
root  1.07412 39.8503 -0.810927 -0.369399 -26.9473 4.01031
RightUpLeg  -12.7701 -3.44167 -6.13224
RightLeg  6.61286 9.29761 -1.16074
RightFoot  4.09205 -0.681657 4.31768
RightToes  1.74624e-010 -3.18055e-015 -2.98177e-016
Spine  4.64208 -3.92099 0.143882
Spine1  -19.4635 -3.73021 2.48042
HEad  25.9128 23.1385 -12.4413
LeftShoulder1  -3.88251e-019 9.70628e-020 -3.87848e-018
LeftArm  -32.4465 -15.0526 2.86088
LeftForeArm  -64.8202 -75.1663 41.7459
LeftHand  -3.02492 -11.8565 20.8813
RightShoulder  -0.915473 -6.90249 -9.61229
RightArm  -45.2557 18.7793 5.16671
RightForeArm  -104.205 68.2912 -100.118
RightHand  -3.6755 12.3117 -23.745
LeftUpLeg  -0.403042 -3.49268 -9.64286
LeftLeg  5.87311 39.828 3.54054
LeftFoot  -4.96859 -0.0487961 0.49829
LeftToes  7.37594e-011 2.64622e-011 -6.25182e-011
513
root  0.763512 39.8768 -0.707707 0.148179 -29.5587 3.6225
RightUpLeg  -13.1323 -2.51087 -5.05125
RightLeg  6.1807 10.7893 -0.818172
RightFoot  4.11804 -0.602654 3.79355
RightToes  1.74624e-010 -3.18055e-015 -2.98177e-016
Spine  4.2238 -4.64087 -1.55055
Spine1  -19.2364 -4.46423 5.88097
HEad  24.569 23.9919 -13.4594
LeftShoulder1  -3.88251e-019 9.70628e-020 -3.87848e-018
LeftArm  -32.3933 -16.606 1.95919
LeftForeArm  -63.8714 -74.0524 37.5341
LeftHand  -2.71697 -10.9909 19.8172
RightShoulder  -0.906254 -6.72538 -9.34129
RightArm  -44.794 15.8225 4.52581
RightForeArm  -110.338 67.7831 -107.004
RightHand  -3.74916 12.4182 -24.0651
LeftUpLeg  -0.314737 -2.89177 -8.84982
LeftLeg  5.95381 41.6566 3.55342
LeftFoot  -4.87846 0.00151604 -0.203933
LeftToes  7.37594e-011 2.64622e-011 -6.25182e-011
514
root  0.418993 39.9054 -0.597605 0.767253 -32.3897 3.15779
RightUpLeg  -13.4406 -1.33267 -3.83928
RightLeg  5.61975 12.3031 -0.618017
RightFoot  4.15907 -0.540624 3.37862
RightToes  1.74624e-010 -3.18055e-015 -2.98177e-016
Spine  3.99977 -5.32663 -3.22592
Spine1  -19.2279 -5.15381 9.22825
HEad  23.8364 24.8367 -13.9717
LeftShoulder1  -3.88251e-019 9.70628e-020 -3.87848e-018
LeftArm  -32.4242 -17.071 1.66697
LeftForeArm  -65.8477 -74.3496 38.1935
LeftHand  -2.54483 -10.7838 18.8413
RightShoulder  -0.890796 -6.5935 -8.67598
RightArm  -44.2623 12.8046 3.42181
RightForeArm  -116.247 66.8816 -114.207
RightHand  -3.80555 12.7 -24.0491
LeftUpLeg  -0.132186 -2.25388 -8.00774
LeftLeg  5.90405 43.6554 3.45936
LeftFoot  -4.72235 0.0552415 -0.928387
LeftToes  7.37594e-011 2.64622e-011 -6.25182e-011
515
root  0.0433451 39.9294 -0.485182 1.46669 -35.4949 2.65178
RightUpLeg  -13.6839 -0.12531 -2.55754
RightLeg  4.93371 14.1104 -0.443043
RightFoot  4.23869 -0.468316 2.8907
RightToes  1.74624e-010 -3.18055e-015 -2.98177e-016
Spine  3.98001 -5.88944 -4.90354
Spine1  -19.4277 -5.70512 12.5412
HEad  23.5169 25.4669 -13.9617
LeftShoulder1  -3.88251e-019 9.70628e-020 -3.87848e-018
LeftArm  -32.448 -16.6693 2.29986
LeftForeArm  -70.4418 -75.6638 42.7237
LeftHand  -2.40145 -11.0553 17.5173
RightShoulder  -0.869748 -6.4479 -7.82008
RightArm  -43.7766 9.59472 1.62879
RightForeArm  -122.142 65.5607 -121.396
RightHand  -3.83878 12.9842 -23.8906
LeftUpLeg  0.149103 -1.58293 -7.15955
LeftLeg  5.73799 45.9216 3.24217
LeftFoot  -4.5109 0.109424 -1.62015
LeftToes  7.37594e-011 2.64622e-011 -6.25182e-011
